<?xml version="1.0" encoding="UTF-8" standalone="no"?>
<!DOCTYPE svg PUBLIC "-//W3C//DTD SVG 1.1//EN"
 "http://www.w3.org/Graphics/SVG/1.1/DTD/svg11.dtd">
<!-- Generated by graphviz version 2.47.3 (20210619.1520)
 -->
<!-- Title: dependencies Pages: 1 -->
<svg width="324pt" height="174pt"
 viewBox="0.00 0.00 324.00 173.80" xmlns="http://www.w3.org/2000/svg" xmlns:xlink="http://www.w3.org/1999/xlink">
<g id="graph0" class="graph" transform="scale(1 1) rotate(0) translate(4 169.8)">
<title>dependencies</title>
<polygon fill="white" stroke="transparent" points="-4,4 -4,-169.8 320,-169.8 320,4 -4,4"/>
<text text-anchor="middle" x="158" y="-8.2" font-family="sans-serif" font-size="14.00">dependencies</text>
<g id="clust1" class="cluster">
<title>cluster_ContactModule</title>
<polygon fill="none" stroke="black" stroke-dasharray="1,5" points="8,-32.8 8,-157.8 308,-157.8 308,-32.8 8,-32.8"/>
</g>
<g id="clust3" class="cluster">
<title>cluster_ContactModule_imports</title>
<polygon fill="none" stroke="black" points="16,-40.8 16,-92.8 300,-92.8 300,-40.8 16,-40.8"/>
</g>
<!-- ContactRoutingModule -->
<g id="node1" class="node">
<title>ContactRoutingModule</title>
<polygon fill="#8dd3c7" stroke="black" points="292.21,-84.8 289.21,-88.8 268.21,-88.8 265.21,-84.8 143.79,-84.8 143.79,-48.8 292.21,-48.8 292.21,-84.8"/>
<text text-anchor="middle" x="218" y="-62.6" font-family="Times,serif" font-size="14.00">ContactRoutingModule</text>
</g>
<!-- ContactModule -->
<g id="node3" class="node">
<title>ContactModule</title>
<polygon fill="#8dd3c7" stroke="black" points="197.6,-149.8 194.6,-153.8 173.6,-153.8 170.6,-149.8 94.4,-149.8 94.4,-113.8 197.6,-113.8 197.6,-149.8"/>
<text text-anchor="middle" x="146" y="-127.6" font-family="Times,serif" font-size="14.00">ContactModule</text>
</g>
<!-- ContactRoutingModule&#45;&gt;ContactModule -->
<g id="edge1" class="edge">
<title>ContactRoutingModule&#45;&gt;ContactModule</title>
<path fill="none" stroke="black" d="M170.72,-84.91C170.72,-84.91 170.72,-103.79 170.72,-103.79"/>
<polygon fill="black" stroke="black" points="167.22,-103.79 170.72,-113.79 174.22,-103.79 167.22,-103.79"/>
</g>
<!-- SidebarModule -->
<g id="node2" class="node">
<title>SidebarModule</title>
<polygon fill="#8dd3c7" stroke="black" points="126.31,-84.8 123.31,-88.8 102.31,-88.8 99.31,-84.8 23.69,-84.8 23.69,-48.8 126.31,-48.8 126.31,-84.8"/>
<text text-anchor="middle" x="75" y="-62.6" font-family="Times,serif" font-size="14.00">SidebarModule</text>
</g>
<!-- SidebarModule&#45;&gt;ContactModule -->
<g id="edge2" class="edge">
<title>SidebarModule&#45;&gt;ContactModule</title>
<path fill="none" stroke="black" d="M110.3,-84.91C110.3,-84.91 110.3,-103.79 110.3,-103.79"/>
<polygon fill="black" stroke="black" points="106.8,-103.79 110.3,-113.79 113.8,-103.79 106.8,-103.79"/>
</g>
</g>
</svg>
