<?xml version="1.0" encoding="UTF-8" standalone="no"?>
<!DOCTYPE svg PUBLIC "-//W3C//DTD SVG 1.1//EN"
 "http://www.w3.org/Graphics/SVG/1.1/DTD/svg11.dtd">
<!-- Generated by graphviz version 2.47.3 (20210619.1520)
 -->
<!-- Title: dependencies Pages: 1 -->
<svg width="2546pt" height="253pt"
 viewBox="0.00 0.00 2546.00 252.80" xmlns="http://www.w3.org/2000/svg" xmlns:xlink="http://www.w3.org/1999/xlink">
<g id="graph0" class="graph" transform="scale(1 1) rotate(0) translate(4 248.8)">
<title>dependencies</title>
<polygon fill="white" stroke="transparent" points="-4,4 -4,-248.8 2542,-248.8 2542,4 -4,4"/>
<text text-anchor="middle" x="1269" y="-8.2" font-family="sans-serif" font-size="14.00">dependencies</text>
<g id="clust13" class="cluster">
<title>cluster_AppModule</title>
<polygon fill="none" stroke="black" stroke-dasharray="1,5" points="1838,-32.8 1838,-236.8 1978,-236.8 1978,-32.8 1838,-32.8"/>
</g>
<g id="clust14" class="cluster">
<title>cluster_AppModule_declarations</title>
<polygon fill="none" stroke="black" points="1847,-40.8 1847,-92.8 1969,-92.8 1969,-40.8 1847,-40.8"/>
</g>
<g id="clust18" class="cluster">
<title>cluster_AppModule_bootstrap</title>
<polygon fill="none" stroke="black" points="1846,-176.8 1846,-228.8 1970,-228.8 1970,-176.8 1846,-176.8"/>
</g>
<g id="clust1" class="cluster">
<title>cluster_AboutModule</title>
<polygon fill="none" stroke="black" stroke-dasharray="1,5" points="324,-32.8 324,-160.8 616,-160.8 616,-32.8 324,-32.8"/>
</g>
<g id="clust3" class="cluster">
<title>cluster_AboutModule_imports</title>
<polygon fill="none" stroke="black" points="332,-40.8 332,-92.8 608,-92.8 608,-40.8 332,-40.8"/>
</g>
<g id="clust20" class="cluster">
<title>cluster_ComponentsModule</title>
<polygon fill="none" stroke="black" stroke-dasharray="1,5" points="624,-32.8 624,-236.8 1464,-236.8 1464,-32.8 624,-32.8"/>
</g>
<g id="clust29" class="cluster">
<title>cluster_ComponentsModule_exports</title>
<polygon fill="none" stroke="black" points="632,-176.8 632,-228.8 1456,-228.8 1456,-176.8 632,-176.8"/>
</g>
<g id="clust21" class="cluster">
<title>cluster_ComponentsModule_declarations</title>
<polygon fill="none" stroke="black" points="643,-40.8 643,-92.8 1445,-92.8 1445,-40.8 643,-40.8"/>
</g>
<g id="clust32" class="cluster">
<title>cluster_ContactModule</title>
<polygon fill="none" stroke="black" stroke-dasharray="1,5" points="1472,-32.8 1472,-160.8 1652,-160.8 1652,-32.8 1472,-32.8"/>
</g>
<g id="clust34" class="cluster">
<title>cluster_ContactModule_imports</title>
<polygon fill="none" stroke="black" points="1480,-40.8 1480,-92.8 1644,-92.8 1644,-40.8 1480,-40.8"/>
</g>
<g id="clust56" class="cluster">
<title>cluster_HomeModule</title>
<polygon fill="none" stroke="black" stroke-dasharray="1,5" points="1660,-32.8 1660,-160.8 1830,-160.8 1830,-32.8 1660,-32.8"/>
</g>
<g id="clust58" class="cluster">
<title>cluster_HomeModule_imports</title>
<polygon fill="none" stroke="black" points="1668,-40.8 1668,-92.8 1822,-92.8 1822,-40.8 1668,-40.8"/>
</g>
<g id="clust68" class="cluster">
<title>cluster_PortfolioModule</title>
<polygon fill="none" stroke="black" stroke-dasharray="1,5" points="2176,-32.8 2176,-160.8 2362,-160.8 2362,-32.8 2176,-32.8"/>
</g>
<g id="clust70" class="cluster">
<title>cluster_PortfolioModule_imports</title>
<polygon fill="none" stroke="black" points="2184,-40.8 2184,-92.8 2354,-92.8 2354,-40.8 2184,-40.8"/>
</g>
<g id="clust80" class="cluster">
<title>cluster_PostModule</title>
<polygon fill="none" stroke="black" stroke-dasharray="1,5" points="2370,-32.8 2370,-160.8 2530,-160.8 2530,-32.8 2370,-32.8"/>
</g>
<g id="clust82" class="cluster">
<title>cluster_PostModule_imports</title>
<polygon fill="none" stroke="black" points="2378,-40.8 2378,-92.8 2522,-92.8 2522,-40.8 2378,-40.8"/>
</g>
<g id="clust92" class="cluster">
<title>cluster_SidebarModule</title>
<polygon fill="none" stroke="black" stroke-dasharray="1,5" points="8,-100.8 8,-168.8 316,-168.8 316,-100.8 8,-100.8"/>
</g>
<g id="clust93" class="cluster">
<title>cluster_SidebarModule_declarations</title>
<polygon fill="none" stroke="black" points="168,-108.8 168,-160.8 308,-160.8 308,-108.8 168,-108.8"/>
</g>
<g id="clust96" class="cluster">
<title>cluster_SidebarModule_exports</title>
<polygon fill="none" stroke="black" points="16,-108.8 16,-160.8 160,-160.8 160,-108.8 16,-108.8"/>
</g>
<g id="clust44" class="cluster">
<title>cluster_CoursesModule</title>
<polygon fill="none" stroke="black" stroke-dasharray="1,5" points="1986,-32.8 1986,-160.8 2168,-160.8 2168,-32.8 1986,-32.8"/>
</g>
<g id="clust46" class="cluster">
<title>cluster_CoursesModule_imports</title>
<polygon fill="none" stroke="black" points="1994,-40.8 1994,-92.8 2160,-92.8 2160,-40.8 1994,-40.8"/>
</g>
<!-- AboutRoutingModule -->
<g id="node1" class="node">
<title>AboutRoutingModule</title>
<polygon fill="#8dd3c7" stroke="black" points="479.67,-84.8 476.67,-88.8 455.67,-88.8 452.67,-84.8 340.33,-84.8 340.33,-48.8 479.67,-48.8 479.67,-84.8"/>
<text text-anchor="middle" x="410" y="-62.6" font-family="Times,serif" font-size="14.00">AboutRoutingModule</text>
</g>
<!-- AboutModule -->
<g id="node3" class="node">
<title>AboutModule</title>
<polygon fill="#8dd3c7" stroke="black" points="526.05,-152.8 523.05,-156.8 502.05,-156.8 499.05,-152.8 431.95,-152.8 431.95,-116.8 526.05,-116.8 526.05,-152.8"/>
<text text-anchor="middle" x="479" y="-130.6" font-family="Times,serif" font-size="14.00">AboutModule</text>
</g>
<!-- AboutRoutingModule&#45;&gt;AboutModule -->
<g id="edge1" class="edge">
<title>AboutRoutingModule&#45;&gt;AboutModule</title>
<path fill="none" stroke="black" d="M455.78,-85.02C455.78,-85.02 455.78,-106.53 455.78,-106.53"/>
<polygon fill="black" stroke="black" points="452.28,-106.53 455.78,-116.53 459.28,-106.53 452.28,-106.53"/>
</g>
<!-- SidebarModule -->
<g id="node2" class="node">
<title>SidebarModule</title>
<polygon fill="#8dd3c7" stroke="black" points="600.31,-84.8 597.31,-88.8 576.31,-88.8 573.31,-84.8 497.69,-84.8 497.69,-48.8 600.31,-48.8 600.31,-84.8"/>
<text text-anchor="middle" x="549" y="-62.6" font-family="Times,serif" font-size="14.00">SidebarModule</text>
</g>
<!-- SidebarModule&#45;&gt;AboutModule -->
<g id="edge2" class="edge">
<title>SidebarModule&#45;&gt;AboutModule</title>
<path fill="none" stroke="black" d="M519.17,-85.02C519.17,-85.02 519.17,-106.53 519.17,-106.53"/>
<polygon fill="black" stroke="black" points="515.67,-106.53 519.17,-116.53 522.67,-106.53 515.67,-106.53"/>
</g>
<!-- ComponentsModule -->
<g id="node13" class="node">
<title>ComponentsModule</title>
<polygon fill="#8dd3c7" stroke="black" points="1053.33,-152.8 1050.33,-156.8 1029.33,-156.8 1026.33,-152.8 922.67,-152.8 922.67,-116.8 1053.33,-116.8 1053.33,-152.8"/>
<text text-anchor="middle" x="988" y="-130.6" font-family="Times,serif" font-size="14.00">ComponentsModule</text>
</g>
<!-- SidebarModule&#45;&gt;ComponentsModule -->
<g id="edge11" class="edge">
<title>SidebarModule&#45;&gt;ComponentsModule</title>
<path fill="none" stroke="black" d="M581.69,-85.02C581.69,-105.17 581.69,-134.8 581.69,-134.8 581.69,-134.8 912.72,-134.8 912.72,-134.8"/>
<polygon fill="black" stroke="black" points="912.72,-138.3 922.72,-134.8 912.72,-131.3 912.72,-138.3"/>
</g>
<!-- ContactModule -->
<g id="node21" class="node">
<title>ContactModule</title>
<polygon fill="#8dd3c7" stroke="black" points="1598.6,-152.8 1595.6,-156.8 1574.6,-156.8 1571.6,-152.8 1495.4,-152.8 1495.4,-116.8 1598.6,-116.8 1598.6,-152.8"/>
<text text-anchor="middle" x="1547" y="-130.6" font-family="Times,serif" font-size="14.00">ContactModule</text>
</g>
<!-- SidebarModule&#45;&gt;ContactModule -->
<g id="edge19" class="edge">
<title>SidebarModule&#45;&gt;ContactModule</title>
<path fill="none" stroke="black" d="M544.74,-84.83C544.74,-91.65 544.74,-97.8 544.74,-97.8 544.74,-97.8 1529.82,-97.8 1529.82,-97.8 1529.82,-97.8 1529.82,-106.73 1529.82,-106.73"/>
<polygon fill="black" stroke="black" points="1526.32,-106.73 1529.82,-116.73 1533.32,-106.73 1526.32,-106.73"/>
</g>
<!-- HomeModule -->
<g id="node25" class="node">
<title>HomeModule</title>
<polygon fill="#8dd3c7" stroke="black" points="1776.76,-152.8 1773.76,-156.8 1752.76,-156.8 1749.76,-152.8 1683.24,-152.8 1683.24,-116.8 1776.76,-116.8 1776.76,-152.8"/>
<text text-anchor="middle" x="1730" y="-130.6" font-family="Times,serif" font-size="14.00">HomeModule</text>
</g>
<!-- SidebarModule&#45;&gt;HomeModule -->
<g id="edge22" class="edge">
<title>SidebarModule&#45;&gt;HomeModule</title>
<path fill="none" stroke="black" d="M563.21,-84.97C563.21,-88.85 563.21,-91.8 563.21,-91.8 563.21,-91.8 1714.37,-91.8 1714.37,-91.8 1714.37,-91.8 1714.37,-106.31 1714.37,-106.31"/>
<polygon fill="black" stroke="black" points="1710.87,-106.31 1714.37,-116.31 1717.87,-106.31 1710.87,-106.31"/>
</g>
<!-- SidebarComponent  -->
<g id="node31" class="node">
<title>SidebarComponent </title>
<polygon fill="#fb8072" stroke="black" points="151.6,-152.8 24.4,-152.8 24.4,-116.8 151.6,-116.8 151.6,-152.8"/>
<text text-anchor="middle" x="88" y="-130.6" font-family="Times,serif" font-size="14.00">SidebarComponent </text>
</g>
<!-- SidebarModule&#45;&gt;SidebarComponent  -->
<g id="edge26" class="edge">
<title>SidebarModule&#45;&gt;SidebarComponent </title>
<path fill="none" stroke="black" stroke-dasharray="5,2" d="M504.95,-84.91C504.95,-94.7 504.95,-104.8 504.95,-104.8 504.95,-104.8 88,-104.8 88,-104.8 88,-104.8 88,-106.66 88,-106.66"/>
<polygon fill="black" stroke="black" points="84.5,-106.66 88,-116.66 91.5,-106.66 84.5,-106.66"/>
</g>
<!-- AppComponent -->
<g id="node4" class="node">
<title>AppComponent</title>
<polygon fill="#ffffb3" stroke="black" points="1960.94,-84.8 1855.06,-84.8 1855.06,-48.8 1960.94,-48.8 1960.94,-84.8"/>
<text text-anchor="middle" x="1908" y="-62.6" font-family="Times,serif" font-size="14.00">AppComponent</text>
</g>
<!-- AppModule -->
<g id="node5" class="node">
<title>AppModule</title>
<polygon fill="#8dd3c7" stroke="black" points="1949.66,-152.8 1946.66,-156.8 1925.66,-156.8 1922.66,-152.8 1866.34,-152.8 1866.34,-116.8 1949.66,-116.8 1949.66,-152.8"/>
<text text-anchor="middle" x="1908" y="-130.6" font-family="Times,serif" font-size="14.00">AppModule</text>
</g>
<!-- AppComponent&#45;&gt;AppModule -->
<g id="edge3" class="edge">
<title>AppComponent&#45;&gt;AppModule</title>
<path fill="none" stroke="black" d="M1908,-85.02C1908,-85.02 1908,-106.53 1908,-106.53"/>
<polygon fill="black" stroke="black" points="1904.5,-106.53 1908,-116.53 1911.5,-106.53 1904.5,-106.53"/>
</g>
<!-- AppComponent  -->
<g id="node6" class="node">
<title>AppComponent </title>
<polygon fill="#80b1d3" stroke="black" points="1962.44,-220.8 1853.56,-220.8 1853.56,-184.8 1962.44,-184.8 1962.44,-220.8"/>
<text text-anchor="middle" x="1908" y="-198.6" font-family="Times,serif" font-size="14.00">AppComponent </text>
</g>
<!-- AppModule&#45;&gt;AppComponent  -->
<g id="edge4" class="edge">
<title>AppModule&#45;&gt;AppComponent </title>
<path fill="none" stroke="black" stroke-dasharray="1,5" d="M1908,-153.02C1908,-153.02 1908,-174.53 1908,-174.53"/>
<polygon fill="black" stroke="black" points="1904.5,-174.53 1908,-184.53 1911.5,-174.53 1904.5,-174.53"/>
</g>
<!-- DomSecurePipe -->
<g id="node7" class="node">
<title>DomSecurePipe</title>
<polygon fill="#ffffb3" stroke="black" points="893.47,-84.8 786.53,-84.8 786.53,-48.8 893.47,-48.8 893.47,-84.8"/>
<text text-anchor="middle" x="840" y="-62.6" font-family="Times,serif" font-size="14.00">DomSecurePipe</text>
</g>
<!-- DomSecurePipe&#45;&gt;ComponentsModule -->
<g id="edge5" class="edge">
<title>DomSecurePipe&#45;&gt;ComponentsModule</title>
<path fill="none" stroke="black" d="M840,-84.83C840,-101.2 840,-122.8 840,-122.8 840,-122.8 912.65,-122.8 912.65,-122.8"/>
<polygon fill="black" stroke="black" points="912.65,-126.3 922.65,-122.8 912.65,-119.3 912.65,-126.3"/>
</g>
<!-- FooterComponent -->
<g id="node8" class="node">
<title>FooterComponent</title>
<polygon fill="#ffffb3" stroke="black" points="768.88,-84.8 651.12,-84.8 651.12,-48.8 768.88,-48.8 768.88,-84.8"/>
<text text-anchor="middle" x="710" y="-62.6" font-family="Times,serif" font-size="14.00">FooterComponent</text>
</g>
<!-- FooterComponent&#45;&gt;ComponentsModule -->
<g id="edge6" class="edge">
<title>FooterComponent&#45;&gt;ComponentsModule</title>
<path fill="none" stroke="black" d="M727.7,-85.07C727.7,-103.36 727.7,-128.8 727.7,-128.8 727.7,-128.8 912.65,-128.8 912.65,-128.8"/>
<polygon fill="black" stroke="black" points="912.65,-132.3 922.65,-128.8 912.65,-125.3 912.65,-132.3"/>
</g>
<!-- HeaderComponent -->
<g id="node9" class="node">
<title>HeaderComponent</title>
<polygon fill="#ffffb3" stroke="black" points="1436.74,-84.8 1315.26,-84.8 1315.26,-48.8 1436.74,-48.8 1436.74,-84.8"/>
<text text-anchor="middle" x="1376" y="-62.6" font-family="Times,serif" font-size="14.00">HeaderComponent</text>
</g>
<!-- HeaderComponent&#45;&gt;ComponentsModule -->
<g id="edge7" class="edge">
<title>HeaderComponent&#45;&gt;ComponentsModule</title>
<path fill="none" stroke="black" d="M1376,-85.07C1376,-103.36 1376,-128.8 1376,-128.8 1376,-128.8 1063.38,-128.8 1063.38,-128.8"/>
<polygon fill="black" stroke="black" points="1063.38,-125.3 1053.38,-128.8 1063.38,-132.3 1063.38,-125.3"/>
</g>
<!-- NavbarComponent -->
<g id="node10" class="node">
<title>NavbarComponent</title>
<polygon fill="#ffffb3" stroke="black" points="1297.03,-84.8 1174.97,-84.8 1174.97,-48.8 1297.03,-48.8 1297.03,-84.8"/>
<text text-anchor="middle" x="1236" y="-62.6" font-family="Times,serif" font-size="14.00">NavbarComponent</text>
</g>
<!-- NavbarComponent&#45;&gt;ComponentsModule -->
<g id="edge8" class="edge">
<title>NavbarComponent&#45;&gt;ComponentsModule</title>
<path fill="none" stroke="black" d="M1186.47,-84.83C1186.47,-101.2 1186.47,-122.8 1186.47,-122.8 1186.47,-122.8 1063.26,-122.8 1063.26,-122.8"/>
<polygon fill="black" stroke="black" points="1063.26,-119.3 1053.26,-122.8 1063.26,-126.3 1063.26,-119.3"/>
</g>
<!-- NotFoundComponent -->
<g id="node11" class="node">
<title>NotFoundComponent</title>
<polygon fill="#ffffb3" stroke="black" points="1157.11,-84.8 1018.89,-84.8 1018.89,-48.8 1157.11,-48.8 1157.11,-84.8"/>
<text text-anchor="middle" x="1088" y="-62.6" font-family="Times,serif" font-size="14.00">NotFoundComponent</text>
</g>
<!-- NotFoundComponent&#45;&gt;ComponentsModule -->
<g id="edge9" class="edge">
<title>NotFoundComponent&#45;&gt;ComponentsModule</title>
<path fill="none" stroke="black" d="M1036.05,-85.02C1036.05,-85.02 1036.05,-106.53 1036.05,-106.53"/>
<polygon fill="black" stroke="black" points="1032.55,-106.53 1036.05,-116.53 1039.55,-106.53 1032.55,-106.53"/>
</g>
<!-- YoutubePipe -->
<g id="node12" class="node">
<title>YoutubePipe</title>
<polygon fill="#ffffb3" stroke="black" points="1000.6,-84.8 911.4,-84.8 911.4,-48.8 1000.6,-48.8 1000.6,-84.8"/>
<text text-anchor="middle" x="956" y="-62.6" font-family="Times,serif" font-size="14.00">YoutubePipe</text>
</g>
<!-- YoutubePipe&#45;&gt;ComponentsModule -->
<g id="edge10" class="edge">
<title>YoutubePipe&#45;&gt;ComponentsModule</title>
<path fill="none" stroke="black" d="M961.69,-85.02C961.69,-85.02 961.69,-106.53 961.69,-106.53"/>
<polygon fill="black" stroke="black" points="958.19,-106.53 961.69,-116.53 965.19,-106.53 958.19,-106.53"/>
</g>
<!-- DomSecurePipe  -->
<g id="node14" class="node">
<title>DomSecurePipe </title>
<polygon fill="#fb8072" stroke="black" points="1177.47,-220.8 1066.53,-220.8 1066.53,-184.8 1177.47,-184.8 1177.47,-220.8"/>
<text text-anchor="middle" x="1122" y="-198.6" font-family="Times,serif" font-size="14.00">DomSecurePipe </text>
</g>
<!-- ComponentsModule&#45;&gt;DomSecurePipe  -->
<g id="edge12" class="edge">
<title>ComponentsModule&#45;&gt;DomSecurePipe </title>
<path fill="none" stroke="black" stroke-dasharray="5,2" d="M1053.22,-146.8C1083.07,-146.8 1111.91,-146.8 1111.91,-146.8 1111.91,-146.8 1111.91,-174.77 1111.91,-174.77"/>
<polygon fill="black" stroke="black" points="1108.41,-174.77 1111.91,-184.77 1115.41,-174.77 1108.41,-174.77"/>
</g>
<!-- FooterComponent  -->
<g id="node15" class="node">
<title>FooterComponent </title>
<polygon fill="#fb8072" stroke="black" points="1048.88,-220.8 927.12,-220.8 927.12,-184.8 1048.88,-184.8 1048.88,-220.8"/>
<text text-anchor="middle" x="988" y="-198.6" font-family="Times,serif" font-size="14.00">FooterComponent </text>
</g>
<!-- ComponentsModule&#45;&gt;FooterComponent  -->
<g id="edge13" class="edge">
<title>ComponentsModule&#45;&gt;FooterComponent </title>
<path fill="none" stroke="black" stroke-dasharray="5,2" d="M988,-153.02C988,-153.02 988,-174.53 988,-174.53"/>
<polygon fill="black" stroke="black" points="984.5,-174.53 988,-184.53 991.5,-174.53 984.5,-174.53"/>
</g>
<!-- HeaderComponent  -->
<g id="node16" class="node">
<title>HeaderComponent </title>
<polygon fill="#fb8072" stroke="black" points="909.74,-220.8 784.26,-220.8 784.26,-184.8 909.74,-184.8 909.74,-220.8"/>
<text text-anchor="middle" x="847" y="-198.6" font-family="Times,serif" font-size="14.00">HeaderComponent </text>
</g>
<!-- ComponentsModule&#45;&gt;HeaderComponent  -->
<g id="edge14" class="edge">
<title>ComponentsModule&#45;&gt;HeaderComponent </title>
<path fill="none" stroke="black" stroke-dasharray="5,2" d="M922.48,-146.8C910.42,-146.8 901.55,-146.8 901.55,-146.8 901.55,-146.8 901.55,-174.77 901.55,-174.77"/>
<polygon fill="black" stroke="black" points="898.05,-174.77 901.55,-184.77 905.05,-174.77 898.05,-174.77"/>
</g>
<!-- NavbarComponent  -->
<g id="node17" class="node">
<title>NavbarComponent </title>
<polygon fill="#fb8072" stroke="black" points="766.03,-220.8 639.97,-220.8 639.97,-184.8 766.03,-184.8 766.03,-220.8"/>
<text text-anchor="middle" x="703" y="-198.6" font-family="Times,serif" font-size="14.00">NavbarComponent </text>
</g>
<!-- ComponentsModule&#45;&gt;NavbarComponent  -->
<g id="edge15" class="edge">
<title>ComponentsModule&#45;&gt;NavbarComponent </title>
<path fill="none" stroke="black" stroke-dasharray="5,2" d="M922.84,-140.8C834.97,-140.8 689.38,-140.8 689.38,-140.8 689.38,-140.8 689.38,-174.53 689.38,-174.53"/>
<polygon fill="black" stroke="black" points="685.88,-174.53 689.38,-184.53 692.88,-174.53 685.88,-174.53"/>
</g>
<!-- NotFoundComponent  -->
<g id="node18" class="node">
<title>NotFoundComponent </title>
<polygon fill="#fb8072" stroke="black" points="1447.61,-220.8 1306.39,-220.8 1306.39,-184.8 1447.61,-184.8 1447.61,-220.8"/>
<text text-anchor="middle" x="1377" y="-198.6" font-family="Times,serif" font-size="14.00">NotFoundComponent </text>
</g>
<!-- ComponentsModule&#45;&gt;NotFoundComponent  -->
<g id="edge16" class="edge">
<title>ComponentsModule&#45;&gt;NotFoundComponent </title>
<path fill="none" stroke="black" stroke-dasharray="5,2" d="M1053.3,-134.8C1147.58,-134.8 1310.66,-134.8 1310.66,-134.8 1310.66,-134.8 1310.66,-174.58 1310.66,-174.58"/>
<polygon fill="black" stroke="black" points="1307.16,-174.58 1310.66,-184.58 1314.16,-174.58 1307.16,-174.58"/>
</g>
<!-- YoutubePipe  -->
<g id="node19" class="node">
<title>YoutubePipe </title>
<polygon fill="#fb8072" stroke="black" points="1288.1,-220.8 1195.9,-220.8 1195.9,-184.8 1288.1,-184.8 1288.1,-220.8"/>
<text text-anchor="middle" x="1242" y="-198.6" font-family="Times,serif" font-size="14.00">YoutubePipe </text>
</g>
<!-- ComponentsModule&#45;&gt;YoutubePipe  -->
<g id="edge17" class="edge">
<title>ComponentsModule&#45;&gt;YoutubePipe </title>
<path fill="none" stroke="black" stroke-dasharray="5,2" d="M1053.41,-140.8C1128.67,-140.8 1242,-140.8 1242,-140.8 1242,-140.8 1242,-174.53 1242,-174.53"/>
<polygon fill="black" stroke="black" points="1238.5,-174.53 1242,-184.53 1245.5,-174.53 1238.5,-174.53"/>
</g>
<!-- ContactRoutingModule -->
<g id="node20" class="node">
<title>ContactRoutingModule</title>
<polygon fill="#8dd3c7" stroke="black" points="1636.21,-84.8 1633.21,-88.8 1612.21,-88.8 1609.21,-84.8 1487.79,-84.8 1487.79,-48.8 1636.21,-48.8 1636.21,-84.8"/>
<text text-anchor="middle" x="1562" y="-62.6" font-family="Times,serif" font-size="14.00">ContactRoutingModule</text>
</g>
<!-- ContactRoutingModule&#45;&gt;ContactModule -->
<g id="edge18" class="edge">
<title>ContactRoutingModule&#45;&gt;ContactModule</title>
<path fill="none" stroke="black" d="M1564.18,-85.02C1564.18,-85.02 1564.18,-106.53 1564.18,-106.53"/>
<polygon fill="black" stroke="black" points="1560.68,-106.53 1564.18,-116.53 1567.68,-106.53 1560.68,-106.53"/>
</g>
<!-- CoursesRoutingModule -->
<g id="node22" class="node">
<title>CoursesRoutingModule</title>
<polygon fill="#8dd3c7" stroke="black" points="2151.77,-84.8 2148.77,-88.8 2127.77,-88.8 2124.77,-84.8 2002.23,-84.8 2002.23,-48.8 2151.77,-48.8 2151.77,-84.8"/>
<text text-anchor="middle" x="2077" y="-62.6" font-family="Times,serif" font-size="14.00">CoursesRoutingModule</text>
</g>
<!-- CoursesModule -->
<g id="node23" class="node">
<title>CoursesModule</title>
<polygon fill="#8dd3c7" stroke="black" points="2129.15,-152.8 2126.15,-156.8 2105.15,-156.8 2102.15,-152.8 2024.85,-152.8 2024.85,-116.8 2129.15,-116.8 2129.15,-152.8"/>
<text text-anchor="middle" x="2077" y="-130.6" font-family="Times,serif" font-size="14.00">CoursesModule</text>
</g>
<!-- CoursesRoutingModule&#45;&gt;CoursesModule -->
<g id="edge20" class="edge">
<title>CoursesRoutingModule&#45;&gt;CoursesModule</title>
<path fill="none" stroke="black" d="M2077,-85.02C2077,-85.02 2077,-106.53 2077,-106.53"/>
<polygon fill="black" stroke="black" points="2073.5,-106.53 2077,-116.53 2080.5,-106.53 2073.5,-106.53"/>
</g>
<!-- HomeRoutingModule -->
<g id="node24" class="node">
<title>HomeRoutingModule</title>
<polygon fill="#8dd3c7" stroke="black" points="1814.38,-84.8 1811.38,-88.8 1790.38,-88.8 1787.38,-84.8 1675.62,-84.8 1675.62,-48.8 1814.38,-48.8 1814.38,-84.8"/>
<text text-anchor="middle" x="1745" y="-62.6" font-family="Times,serif" font-size="14.00">HomeRoutingModule</text>
</g>
<!-- HomeRoutingModule&#45;&gt;HomeModule -->
<g id="edge21" class="edge">
<title>HomeRoutingModule&#45;&gt;HomeModule</title>
<path fill="none" stroke="black" d="M1745.63,-85.02C1745.63,-85.02 1745.63,-106.53 1745.63,-106.53"/>
<polygon fill="black" stroke="black" points="1742.13,-106.53 1745.63,-116.53 1749.13,-106.53 1742.13,-106.53"/>
</g>
<!-- PortfolioRoutingModule -->
<g id="node26" class="node">
<title>PortfolioRoutingModule</title>
<polygon fill="#8dd3c7" stroke="black" points="2346.44,-84.8 2343.44,-88.8 2322.44,-88.8 2319.44,-84.8 2191.56,-84.8 2191.56,-48.8 2346.44,-48.8 2346.44,-84.8"/>
<text text-anchor="middle" x="2269" y="-62.6" font-family="Times,serif" font-size="14.00">PortfolioRoutingModule</text>
</g>
<!-- PortfolioModule -->
<g id="node27" class="node">
<title>PortfolioModule</title>
<polygon fill="#8dd3c7" stroke="black" points="2323.83,-152.8 2320.83,-156.8 2299.83,-156.8 2296.83,-152.8 2214.17,-152.8 2214.17,-116.8 2323.83,-116.8 2323.83,-152.8"/>
<text text-anchor="middle" x="2269" y="-130.6" font-family="Times,serif" font-size="14.00">PortfolioModule</text>
</g>
<!-- PortfolioRoutingModule&#45;&gt;PortfolioModule -->
<g id="edge23" class="edge">
<title>PortfolioRoutingModule&#45;&gt;PortfolioModule</title>
<path fill="none" stroke="black" d="M2269,-85.02C2269,-85.02 2269,-106.53 2269,-106.53"/>
<polygon fill="black" stroke="black" points="2265.5,-106.53 2269,-116.53 2272.5,-106.53 2265.5,-106.53"/>
</g>
<!-- PostRoutingModule -->
<g id="node28" class="node">
<title>PostRoutingModule</title>
<polygon fill="#8dd3c7" stroke="black" points="2514.29,-84.8 2511.29,-88.8 2490.29,-88.8 2487.29,-84.8 2385.71,-84.8 2385.71,-48.8 2514.29,-48.8 2514.29,-84.8"/>
<text text-anchor="middle" x="2450" y="-62.6" font-family="Times,serif" font-size="14.00">PostRoutingModule</text>
</g>
<!-- PostModule -->
<g id="node29" class="node">
<title>PostModule</title>
<polygon fill="#8dd3c7" stroke="black" points="2491.67,-152.8 2488.67,-156.8 2467.67,-156.8 2464.67,-152.8 2408.33,-152.8 2408.33,-116.8 2491.67,-116.8 2491.67,-152.8"/>
<text text-anchor="middle" x="2450" y="-130.6" font-family="Times,serif" font-size="14.00">PostModule</text>
</g>
<!-- PostRoutingModule&#45;&gt;PostModule -->
<g id="edge24" class="edge">
<title>PostRoutingModule&#45;&gt;PostModule</title>
<path fill="none" stroke="black" d="M2450,-85.02C2450,-85.02 2450,-106.53 2450,-106.53"/>
<polygon fill="black" stroke="black" points="2446.5,-106.53 2450,-116.53 2453.5,-106.53 2446.5,-106.53"/>
</g>
<!-- SidebarComponent -->
<g id="node30" class="node">
<title>SidebarComponent</title>
<polygon fill="#ffffb3" stroke="black" points="300.1,-152.8 175.9,-152.8 175.9,-116.8 300.1,-116.8 300.1,-152.8"/>
<text text-anchor="middle" x="238" y="-130.6" font-family="Times,serif" font-size="14.00">SidebarComponent</text>
</g>
<!-- SidebarComponent&#45;&gt;SidebarModule -->
<g id="edge25" class="edge">
<title>SidebarComponent&#45;&gt;SidebarModule</title>
<path fill="none" stroke="black" d="M238,-116.61C238,-113.26 238,-110.8 238,-110.8 238,-110.8 512.06,-110.8 512.06,-110.8 512.06,-110.8 512.06,-94.95 512.06,-94.95"/>
<polygon fill="black" stroke="black" points="515.56,-94.95 512.06,-84.95 508.56,-94.95 515.56,-94.95"/>
</g>
</g>
</svg>
