<?xml version="1.0" encoding="UTF-8" standalone="no"?>
<!DOCTYPE svg PUBLIC "-//W3C//DTD SVG 1.1//EN"
 "http://www.w3.org/Graphics/SVG/1.1/DTD/svg11.dtd">
<!-- Generated by graphviz version 2.47.3 (20210619.1520)
 -->
<!-- Title: dependencies Pages: 1 -->
<svg width="315pt" height="174pt"
 viewBox="0.00 0.00 315.00 173.80" xmlns="http://www.w3.org/2000/svg" xmlns:xlink="http://www.w3.org/1999/xlink">
<g id="graph0" class="graph" transform="scale(1 1) rotate(0) translate(4 169.8)">
<title>dependencies</title>
<polygon fill="white" stroke="transparent" points="-4,4 -4,-169.8 311,-169.8 311,4 -4,4"/>
<text text-anchor="middle" x="153.5" y="-8.2" font-family="sans-serif" font-size="14.00">dependencies</text>
<g id="clust1" class="cluster">
<title>cluster_HomeModule</title>
<polygon fill="none" stroke="black" stroke-dasharray="1,5" points="8,-32.8 8,-157.8 299,-157.8 299,-32.8 8,-32.8"/>
</g>
<g id="clust3" class="cluster">
<title>cluster_HomeModule_imports</title>
<polygon fill="none" stroke="black" points="16,-40.8 16,-92.8 291,-92.8 291,-40.8 16,-40.8"/>
</g>
<!-- HomeRoutingModule -->
<g id="node1" class="node">
<title>HomeRoutingModule</title>
<polygon fill="#8dd3c7" stroke="black" points="283.38,-84.8 280.38,-88.8 259.38,-88.8 256.38,-84.8 144.62,-84.8 144.62,-48.8 283.38,-48.8 283.38,-84.8"/>
<text text-anchor="middle" x="214" y="-62.6" font-family="Times,serif" font-size="14.00">HomeRoutingModule</text>
</g>
<!-- HomeModule -->
<g id="node3" class="node">
<title>HomeModule</title>
<polygon fill="#8dd3c7" stroke="black" points="190.76,-149.8 187.76,-153.8 166.76,-153.8 163.76,-149.8 97.24,-149.8 97.24,-113.8 190.76,-113.8 190.76,-149.8"/>
<text text-anchor="middle" x="144" y="-127.6" font-family="Times,serif" font-size="14.00">HomeModule</text>
</g>
<!-- HomeRoutingModule&#45;&gt;HomeModule -->
<g id="edge1" class="edge">
<title>HomeRoutingModule&#45;&gt;HomeModule</title>
<path fill="none" stroke="black" d="M167.72,-84.91C167.72,-84.91 167.72,-103.79 167.72,-103.79"/>
<polygon fill="black" stroke="black" points="164.22,-103.79 167.72,-113.79 171.22,-103.79 164.22,-103.79"/>
</g>
<!-- SidebarModule -->
<g id="node2" class="node">
<title>SidebarModule</title>
<polygon fill="#8dd3c7" stroke="black" points="126.31,-84.8 123.31,-88.8 102.31,-88.8 99.31,-84.8 23.69,-84.8 23.69,-48.8 126.31,-48.8 126.31,-84.8"/>
<text text-anchor="middle" x="75" y="-62.6" font-family="Times,serif" font-size="14.00">SidebarModule</text>
</g>
<!-- SidebarModule&#45;&gt;HomeModule -->
<g id="edge2" class="edge">
<title>SidebarModule&#45;&gt;HomeModule</title>
<path fill="none" stroke="black" d="M111.64,-84.91C111.64,-84.91 111.64,-103.79 111.64,-103.79"/>
<polygon fill="black" stroke="black" points="108.14,-103.79 111.64,-113.79 115.14,-103.79 108.14,-103.79"/>
</g>
</g>
</svg>
